# xmcd CD database file
#
# Track frame offsets:
#	150
#	14460
#	31338
#	43316
#	55613
#	69027
#	81225
#	100823
#	116986
#	134567
#	148106
#
# Disc length: 2255 seconds
#
# Revision: 0
# Processed by: cddbd v1.5.2PL0 Copyright (c) Steve Scherf et al.
# Submitted via: CDex 1.51
#
DISCID=9a08cd0b
DTITLE=Kenny Rogers - Daytime Friends
DYEAR=1977
DGENRE=Country
TTITLE0=Daytime Friends
TTITLE1=Desperado
TTITLE2=Rock n Roll Man
TTITLE3=Lying Again
TTITLE4=I'll Just Write My Music
TTITLE5=My World Begins And Ends
TTITLE6=Sweet Music Man
TTITLE7=Am I Too Late
TTITLE8=We Dont Make Love Any More
TTITLE9=Ghost Of Another Man
TTITLE10=Let Me Sing For You
EXTD=YEAR: 1977
EXTT0=
EXTT1=
EXTT2=
EXTT3=
EXTT4=
EXTT5=
EXTT6=
EXTT7=
EXTT8=
EXTT9=
EXTT10=
PLAYORDER=
